<svg preserveAspectRatio="none" id="visual" viewBox="0 0 900 900" width="900" height="900" xmlns="http://www.w3.org/2000/svg" xmlns:xlink="http://www.w3.org/1999/xlink" version="1.1"><rect x="0" y="0" width="900" height="900" fill="#001220"></rect><defs><linearGradient id="grad1_0" x1="0%" y1="0%" x2="100%" y2="100%"><stop offset="30%" stop-color="#008080" stop-opacity="1"></stop><stop offset="70%" stop-color="#008080" stop-opacity="1"></stop></linearGradient></defs><defs><linearGradient id="grad1_1" x1="0%" y1="0%" x2="100%" y2="100%"><stop offset="30%" stop-color="#008080" stop-opacity="1"></stop><stop offset="70%" stop-color="#004657" stop-opacity="1"></stop></linearGradient></defs><defs><linearGradient id="grad1_2" x1="0%" y1="0%" x2="100%" y2="100%"><stop offset="30%" stop-color="#001220" stop-opacity="1"></stop><stop offset="70%" stop-color="#004657" stop-opacity="1"></stop></linearGradient></defs><defs><linearGradient id="grad2_0" x1="0%" y1="0%" x2="100%" y2="100%"><stop offset="30%" stop-color="#008080" stop-opacity="1"></stop><stop offset="70%" stop-color="#008080" stop-opacity="1"></stop></linearGradient></defs><defs><linearGradient id="grad2_1" x1="0%" y1="0%" x2="100%" y2="100%"><stop offset="30%" stop-color="#004657" stop-opacity="1"></stop><stop offset="70%" stop-color="#008080" stop-opacity="1"></stop></linearGradient></defs><defs><linearGradient id="grad2_2" x1="0%" y1="0%" x2="100%" y2="100%"><stop offset="30%" stop-color="#004657" stop-opacity="1"></stop><stop offset="70%" stop-color="#001220" stop-opacity="1"></stop></linearGradient></defs><g transform="translate(900, 0)"><path d="M0 286.4C-49.9 278.8 -99.9 271.2 -143.2 248C-186.5 224.8 -223.2 185.9 -246 142C-268.7 98.1 -277.5 49 -286.4 0L0 0Z" fill="#012b3c"></path><path d="M0 190.9C-33.3 185.9 -66.6 180.8 -95.5 165.3C-124.3 149.9 -148.8 124 -164 94.7C-179.1 65.4 -185 32.7 -190.9 0L0 0Z" fill="#00626e"></path><path d="M0 95.5C-16.6 92.9 -33.3 90.4 -47.7 82.7C-62.2 74.9 -74.4 62 -82 47.3C-89.6 32.7 -92.5 16.3 -95.5 0L0 0Z" fill="#008080"></path></g><g transform="translate(0, 900)"><path d="M0 -286.4C42.6 -266.5 85.3 -246.5 130 -225.2C174.7 -203.8 221.6 -181 248 -143.2C274.4 -105.4 280.4 -52.7 286.4 0L0 0Z" fill="#012b3c"></path><path d="M0 -190.9C28.4 -177.6 56.8 -164.4 86.7 -150.1C116.5 -135.9 147.7 -120.6 165.3 -95.5C183 -70.3 186.9 -35.1 190.9 0L0 0Z" fill="#00626e"></path><path d="M0 -95.5C14.2 -88.8 28.4 -82.2 43.3 -75.1C58.2 -67.9 73.9 -60.3 82.7 -47.7C91.5 -35.1 93.5 -17.6 95.5 0L0 0Z" fill="#008080"></path></g></svg>