<svg id="visual" viewBox="0 0 900 675" width="900" height="675" xmlns="http://www.w3.org/2000/svg" xmlns:xlink="http://www.w3.org/1999/xlink" version="1.1"><rect x="0" y="0" width="900" height="675" fill="#f0f0f0"></rect><defs><linearGradient id="grad1_0" x1="25%" y1="0%" x2="100%" y2="100%"><stop offset="23.333333333333336%" stop-color="#008080" stop-opacity="1"></stop><stop offset="76.66666666666666%" stop-color="#008080" stop-opacity="1"></stop></linearGradient></defs><defs><linearGradient id="grad1_1" x1="25%" y1="0%" x2="100%" y2="100%"><stop offset="23.333333333333336%" stop-color="#008080" stop-opacity="1"></stop><stop offset="76.66666666666666%" stop-color="#8cb7b6" stop-opacity="1"></stop></linearGradient></defs><defs><linearGradient id="grad1_2" x1="25%" y1="0%" x2="100%" y2="100%"><stop offset="23.333333333333336%" stop-color="#f0f0f0" stop-opacity="1"></stop><stop offset="76.66666666666666%" stop-color="#8cb7b6" stop-opacity="1"></stop></linearGradient></defs><defs><linearGradient id="grad2_0" x1="0%" y1="0%" x2="75%" y2="100%"><stop offset="23.333333333333336%" stop-color="#008080" stop-opacity="1"></stop><stop offset="76.66666666666666%" stop-color="#008080" stop-opacity="1"></stop></linearGradient></defs><defs><linearGradient id="grad2_1" x1="0%" y1="0%" x2="75%" y2="100%"><stop offset="23.333333333333336%" stop-color="#8cb7b6" stop-opacity="1"></stop><stop offset="76.66666666666666%" stop-color="#008080" stop-opacity="1"></stop></linearGradient></defs><defs><linearGradient id="grad2_2" x1="0%" y1="0%" x2="75%" y2="100%"><stop offset="23.333333333333336%" stop-color="#8cb7b6" stop-opacity="1"></stop><stop offset="76.66666666666666%" stop-color="#f0f0f0" stop-opacity="1"></stop></linearGradient></defs><g transform="translate(900, 0)"><path d="M0 281.3C-50.3 274.5 -100.6 267.8 -140.6 243.6C-180.6 219.3 -210.4 177.5 -232.1 134C-253.8 90.5 -267.5 45.2 -281.2 0L0 0Z" fill="#bed3d3"></path><path d="M0 187.5C-33.5 183 -67.1 178.5 -93.7 162.4C-120.4 146.2 -140.2 118.3 -154.7 89.3C-169.2 60.3 -178.4 30.2 -187.5 0L0 0Z" fill="#589b9b"></path><path d="M0 93.8C-16.8 91.5 -33.5 89.3 -46.9 81.2C-60.2 73.1 -70.1 59.2 -77.4 44.7C-84.6 30.2 -89.2 15.1 -93.7 0L0 0Z" fill="#008080"></path></g><g transform="translate(0, 675)"><path d="M0 -281.2C43.1 -263.8 86.2 -246.4 130 -225.2C173.8 -203.9 218.2 -178.8 243.6 -140.6C268.9 -102.5 275.1 -51.2 281.3 0L0 0Z" fill="#bed3d3"></path><path d="M0 -187.5C28.7 -175.9 57.5 -164.3 86.7 -150.1C115.9 -135.9 145.5 -119.2 162.4 -93.8C179.3 -68.3 183.4 -34.2 187.5 0L0 0Z" fill="#589b9b"></path><path d="M0 -93.7C14.4 -87.9 28.7 -82.1 43.3 -75.1C57.9 -68 72.7 -59.6 81.2 -46.9C89.6 -34.2 91.7 -17.1 93.8 0L0 0Z" fill="#008080"></path></g></svg>