<svg id="visual" viewBox="0 0 900 675" width="900" height="675" xmlns="http://www.w3.org/2000/svg" xmlns:xlink="http://www.w3.org/1999/xlink" version="1.1"><rect x="0" y="0" width="900" height="675" fill="#e0f2f1"></rect><defs><linearGradient id="grad1_0" x1="25%" y1="0%" x2="100%" y2="100%"><stop offset="23.333333333333336%" stop-color="#008080" stop-opacity="1"></stop><stop offset="76.66666666666666%" stop-color="#008080" stop-opacity="1"></stop></linearGradient></defs><defs><linearGradient id="grad1_1" x1="25%" y1="0%" x2="100%" y2="100%"><stop offset="23.333333333333336%" stop-color="#008080" stop-opacity="1"></stop><stop offset="76.66666666666666%" stop-color="#83b8b6" stop-opacity="1"></stop></linearGradient></defs><defs><linearGradient id="grad1_2" x1="25%" y1="0%" x2="100%" y2="100%"><stop offset="23.333333333333336%" stop-color="#e0f2f1" stop-opacity="1"></stop><stop offset="76.66666666666666%" stop-color="#83b8b6" stop-opacity="1"></stop></linearGradient></defs><defs><linearGradient id="grad2_0" x1="0%" y1="0%" x2="75%" y2="100%"><stop offset="23.333333333333336%" stop-color="#008080" stop-opacity="1"></stop><stop offset="76.66666666666666%" stop-color="#008080" stop-opacity="1"></stop></linearGradient></defs><defs><linearGradient id="grad2_1" x1="0%" y1="0%" x2="75%" y2="100%"><stop offset="23.333333333333336%" stop-color="#83b8b6" stop-opacity="1"></stop><stop offset="76.66666666666666%" stop-color="#008080" stop-opacity="1"></stop></linearGradient></defs><defs><linearGradient id="grad2_2" x1="0%" y1="0%" x2="75%" y2="100%"><stop offset="23.333333333333336%" stop-color="#83b8b6" stop-opacity="1"></stop><stop offset="76.66666666666666%" stop-color="#e0f2f1" stop-opacity="1"></stop></linearGradient></defs><g transform="translate(900, 0)"><path d="M0 281.3C-47.4 271.2 -94.7 261.2 -138 239C-181.3 216.8 -220.4 182.5 -243.6 140.6C-266.8 98.8 -274 49.4 -281.2 0L0 0Z" fill="#b2d5d3"></path><path d="M0 187.5C-31.6 180.8 -63.2 174.1 -92 159.3C-120.8 144.6 -146.9 121.7 -162.4 93.8C-177.8 65.8 -182.7 32.9 -187.5 0L0 0Z" fill="#529c9b"></path><path d="M0 93.8C-15.8 90.4 -31.6 87.1 -46 79.7C-60.4 72.3 -73.5 60.8 -81.2 46.9C-88.9 32.9 -91.3 16.5 -93.7 0L0 0Z" fill="#008080"></path></g><g transform="translate(0, 675)"><path d="M0 -281.2C40.7 -259.7 81.4 -238.1 125.5 -217.4C169.6 -196.6 217 -176.7 243.6 -140.6C270.1 -104.5 275.7 -52.3 281.3 0L0 0Z" fill="#b2d5d3"></path><path d="M0 -187.5C27.1 -173.1 54.3 -158.7 83.7 -144.9C113.1 -131.1 144.7 -117.8 162.4 -93.8C180.1 -69.7 183.8 -34.8 187.5 0L0 0Z" fill="#529c9b"></path><path d="M0 -93.7C13.6 -86.6 27.1 -79.4 41.8 -72.5C56.5 -65.5 72.3 -58.9 81.2 -46.9C90 -34.8 91.9 -17.4 93.8 0L0 0Z" fill="#008080"></path></g></svg>