<svg id="visual" viewBox="0 0 450 900" width="450" height="900" xmlns="http://www.w3.org/2000/svg" xmlns:xlink="http://www.w3.org/1999/xlink" version="1.1"><rect x="0" y="0" width="450" height="900" fill="#001220"></rect><defs><linearGradient id="grad1_0" x1="0%" y1="0%" x2="100%" y2="100%"><stop offset="30%" stop-color="#008080" stop-opacity="1"></stop><stop offset="70%" stop-color="#008080" stop-opacity="1"></stop></linearGradient></defs><defs><linearGradient id="grad1_1" x1="0%" y1="0%" x2="100%" y2="100%"><stop offset="30%" stop-color="#008080" stop-opacity="1"></stop><stop offset="70%" stop-color="#004657" stop-opacity="1"></stop></linearGradient></defs><defs><linearGradient id="grad1_2" x1="0%" y1="0%" x2="100%" y2="100%"><stop offset="30%" stop-color="#001220" stop-opacity="1"></stop><stop offset="70%" stop-color="#004657" stop-opacity="1"></stop></linearGradient></defs><defs><linearGradient id="grad2_0" x1="0%" y1="0%" x2="100%" y2="100%"><stop offset="30%" stop-color="#008080" stop-opacity="1"></stop><stop offset="70%" stop-color="#008080" stop-opacity="1"></stop></linearGradient></defs><defs><linearGradient id="grad2_1" x1="0%" y1="0%" x2="100%" y2="100%"><stop offset="30%" stop-color="#004657" stop-opacity="1"></stop><stop offset="70%" stop-color="#008080" stop-opacity="1"></stop></linearGradient></defs><defs><linearGradient id="grad2_2" x1="0%" y1="0%" x2="100%" y2="100%"><stop offset="30%" stop-color="#004657" stop-opacity="1"></stop><stop offset="70%" stop-color="#001220" stop-opacity="1"></stop></linearGradient></defs><g transform="translate(450, 0)"><path d="M0 270C-46 261.3 -92 252.6 -133.5 231.2C-175 209.8 -211.8 175.7 -233.8 135C-255.8 94.3 -262.9 47.2 -270 0L0 0Z" fill="#012b3c"></path><path d="M0 180C-30.7 174.2 -61.4 168.4 -89 154.2C-116.6 139.9 -141.2 117.1 -155.9 90C-170.5 62.9 -175.3 31.4 -180 0L0 0Z" fill="#00626e"></path><path d="M0 90C-15.3 87.1 -30.7 84.2 -44.5 77.1C-58.3 69.9 -70.6 58.6 -77.9 45C-85.3 31.4 -87.6 15.7 -90 0L0 0Z" fill="#008080"></path></g><g transform="translate(0, 900)"><path d="M0 -270C49.2 -264.1 98.5 -258.2 135 -233.8C171.5 -209.4 195.3 -166.6 215.6 -124.5C236 -82.4 253 -41.2 270 0L0 0Z" fill="#012b3c"></path><path d="M0 -180C32.8 -176.1 65.7 -172.1 90 -155.9C114.3 -139.6 130.2 -111 143.8 -83C157.3 -55 168.7 -27.5 180 0L0 0Z" fill="#00626e"></path><path d="M0 -90C16.4 -88 32.8 -86.1 45 -77.9C57.2 -69.8 65.1 -55.5 71.9 -41.5C78.7 -27.5 84.3 -13.7 90 0L0 0Z" fill="#008080"></path></g></svg>