<svg id="visual" viewBox="0 0 300 900" width="300" height="900" xmlns="http://www.w3.org/2000/svg" xmlns:xlink="http://www.w3.org/1999/xlink" version="1.1"><rect x="0" y="0" width="300" height="900" fill="#e0f2f1"></rect><defs><linearGradient id="grad1_0" x1="0%" y1="0%" x2="100%" y2="100%"><stop offset="30.000000000000004%" stop-color="#008080" stop-opacity="1"></stop><stop offset="70%" stop-color="#008080" stop-opacity="1"></stop></linearGradient></defs><defs><linearGradient id="grad1_1" x1="0%" y1="0%" x2="100%" y2="100%"><stop offset="30.000000000000004%" stop-color="#008080" stop-opacity="1"></stop><stop offset="70%" stop-color="#83b8b6" stop-opacity="1"></stop></linearGradient></defs><defs><linearGradient id="grad1_2" x1="0%" y1="0%" x2="100%" y2="100%"><stop offset="30.000000000000004%" stop-color="#e0f2f1" stop-opacity="1"></stop><stop offset="70%" stop-color="#83b8b6" stop-opacity="1"></stop></linearGradient></defs><defs><linearGradient id="grad2_0" x1="0%" y1="0%" x2="100%" y2="100%"><stop offset="30.000000000000004%" stop-color="#008080" stop-opacity="1"></stop><stop offset="70%" stop-color="#008080" stop-opacity="1"></stop></linearGradient></defs><defs><linearGradient id="grad2_1" x1="0%" y1="0%" x2="100%" y2="100%"><stop offset="30.000000000000004%" stop-color="#83b8b6" stop-opacity="1"></stop><stop offset="70%" stop-color="#008080" stop-opacity="1"></stop></linearGradient></defs><defs><linearGradient id="grad2_2" x1="0%" y1="0%" x2="100%" y2="100%"><stop offset="30.000000000000004%" stop-color="#83b8b6" stop-opacity="1"></stop><stop offset="70%" stop-color="#e0f2f1" stop-opacity="1"></stop></linearGradient></defs><g transform="translate(300, 0)"><path d="M0 270C-50.7 265 -101.5 259.9 -135 233.8C-168.5 207.7 -184.8 160.5 -204.4 118C-224 75.5 -247 37.8 -270 0L0 0Z" fill="#b2d5d3"></path><path d="M0 180C-33.8 176.6 -67.7 173.3 -90 155.9C-112.3 138.5 -123.2 107 -136.3 78.7C-149.3 50.3 -164.7 25.2 -180 0L0 0Z" fill="#529c9b"></path><path d="M0 90C-16.9 88.3 -33.8 86.6 -45 77.9C-56.2 69.2 -61.6 53.5 -68.1 39.3C-74.7 25.2 -82.3 12.6 -90 0L0 0Z" fill="#008080"></path></g><g transform="translate(0, 900)"><path d="M0 -270C40.7 -252.1 81.4 -234.2 123.5 -213.9C165.6 -193.6 209.2 -171 233.8 -135C258.5 -99 264.2 -49.5 270 0L0 0Z" fill="#b2d5d3"></path><path d="M0 -180C27.1 -168.1 54.3 -156.1 82.3 -142.6C110.4 -129.1 139.4 -114 155.9 -90C172.3 -66 176.2 -33 180 0L0 0Z" fill="#529c9b"></path><path d="M0 -90C13.6 -84 27.1 -78.1 41.2 -71.3C55.2 -64.5 69.7 -57 77.9 -45C86.2 -33 88.1 -16.5 90 0L0 0Z" fill="#008080"></path></g></svg>